<svg xmlns="http://www.w3.org/2000/svg" width="800" height="600" viewBox="0 0 800 600"><defs><linearGradient id="s" x1="0" y1="0" x2="0" y2="1"><stop offset="0" stop-color="#1e1b4b"/><stop offset="1" stop-color="#6d28d9"/></linearGradient></defs><rect width="800" height="600" fill="url(#s)"/><g fill="#0f172a"><rect x="40" y="300" width="110" height="300"/><rect x="170" y="220" width="90" height="380"/><rect x="280" y="340" width="130" height="260"/><rect x="430" y="180" width="100" height="420"/><rect x="550" y="280" width="120" height="320"/><rect x="690" y="360" width="80" height="240"/></g><g fill="#fde68a"><rect x="190" y="250" width="14" height="14"/><rect x="226" y="290" width="14" height="14"/><rect x="450" y="220" width="14" height="14"/><rect x="490" y="300" width="14" height="14"/><rect x="580" y="320" width="14" height="14"/><rect x="70" y="340" width="14" height="14"/><rect x="320" y="380" width="14" height="14"/></g></svg>
